<svg version="1.1" id="Layer_1" xmlns="http://www.w3.org/2000/svg" xmlns:xlink="http://www.w3.org/1999/xlink" x="0px" y="0px"
	 width="100%" viewBox="0 0 355 323" enable-background="new 0 0 355 323" xml:space="preserve">
<path fill="#5DD0AB" opacity="1.000000" stroke="none" 
	d="
M278.000000,324.000000 
	C185.729416,324.000000 93.458832,324.000000 1.094126,324.000000 
	C1.094126,216.333374 1.094126,108.666702 1.093009,1.000014 
	C15.415489,1.000000 29.739086,1.000000 44.563599,1.412479 
	C48.374245,19.702341 51.635124,37.588970 55.015720,55.452942 
	C56.548332,63.551655 58.318478,71.605415 59.696434,79.892120 
	C49.973038,84.561264 46.748524,92.011345 46.841518,102.351601 
	C47.207058,142.997757 47.096519,183.649521 46.922577,224.298172 
	C46.884392,233.221329 50.235165,239.382538 58.042320,243.857224 
	C94.161850,264.559235 130.176590,285.445068 166.145142,306.408722 
	C173.516068,310.704712 180.415512,310.817932 187.777206,306.476715 
	C200.395737,299.035583 213.190567,291.893433 226.123932,284.906494 
	C228.542511,286.933655 230.683914,288.769836 232.965271,290.411530 
	C245.586212,299.493683 258.275940,308.480743 270.855896,317.619049 
	C273.426117,319.486084 275.628204,321.859833 278.000000,324.000000 
z"/>
<path fill="#6ED5B4" opacity="1.000000" stroke="none" 
	d="
M250.000000,0.999999 
	C285.281555,1.000000 320.563141,1.000000 356.000000,1.000000 
	C356.000000,65.020813 356.000000,129.041748 355.619354,193.524597 
	C354.274170,193.797806 353.105988,193.895813 352.375793,193.377167 
	C342.303741,186.222931 332.245880,179.046646 322.284363,171.739716 
	C317.143951,167.969131 312.200989,163.929382 307.108032,159.545181 
	C307.031433,139.768127 306.809570,120.454178 307.087524,101.147430 
	C307.224182,91.654541 303.777191,84.986061 295.240814,80.481949 
	C286.283630,75.755798 277.695923,70.329384 269.071381,64.880585 
	C269.042603,62.948563 269.245209,61.204842 268.678131,59.764080 
	C264.925995,50.231224 260.411957,40.953453 257.311798,31.221281 
	C254.173904,21.370705 252.381668,11.091470 250.000000,0.999999 
z"/>
<path fill="#66D3AF" opacity="1.000000" stroke="none" 
	d="
M307.168823,160.011261 
	C312.200989,163.929382 317.143951,167.969131 322.284363,171.739716 
	C332.245880,179.046646 342.303741,186.222931 352.375793,193.377167 
	C353.105988,193.895813 354.274170,193.797806 355.619354,193.993256 
	C356.000000,237.242004 356.000000,280.484009 356.000000,324.000000 
	C330.313080,324.000000 304.625214,324.000000 278.468658,324.000000 
	C275.628204,321.859833 273.426117,319.486084 270.855896,317.619049 
	C258.275940,308.480743 245.586212,299.493683 232.965271,290.411530 
	C230.683914,288.769836 228.542511,286.933655 226.348206,284.672729 
	C249.409973,270.853973 272.403351,257.450073 295.541351,244.300690 
	C303.441742,239.810883 307.144928,233.520798 307.076050,224.402802 
	C306.913910,202.940414 307.114807,181.475281 307.168823,160.011261 
z"/>
<path fill="#63D2AE" opacity="1.000000" stroke="none" 
	d="
M59.980865,79.679581 
	C58.318478,71.605415 56.548332,63.551655 55.015720,55.452942 
	C51.635124,37.588970 48.374245,19.702341 45.032257,1.412479 
	C83.020897,1.000000 121.041786,1.000000 159.614044,1.400020 
	C161.120880,7.901358 162.076340,14.002675 162.810089,20.357553 
	C158.846405,22.789118 155.114151,24.984005 151.360947,27.142460 
	C120.903145,44.658691 90.441406,62.168095 59.980865,79.679581 
z"/>
<path fill="#6AD4B2" opacity="1.000000" stroke="none" 
	d="
M163.031799,20.103992 
	C162.076340,14.002675 161.120880,7.901358 160.082703,1.400020 
	C189.687561,1.000000 219.375122,1.000000 249.531342,0.999999 
	C252.381668,11.091470 254.173904,21.370705 257.311798,31.221281 
	C260.411957,40.953453 264.925995,50.231224 268.678131,59.764080 
	C269.245209,61.204842 269.042603,62.948563 268.725403,64.791550 
	C241.232193,49.426846 214.177673,33.877579 187.209167,18.180517 
	C180.362152,14.195198 173.783157,13.861809 167.021332,18.109482 
	C165.768311,18.896608 164.365479,19.445271 163.031799,20.103992 
z"/>
<path fill="#EDEEEE" opacity="1.000000" stroke="none" 
	d="
M162.810089,20.357552 
	C164.365479,19.445271 165.768311,18.896608 167.021332,18.109482 
	C173.783157,13.861809 180.362152,14.195198 187.209167,18.180517 
	C214.177673,33.877579 241.232193,49.426846 268.600769,65.119980 
	C277.695923,70.329384 286.283630,75.755798 295.240814,80.481949 
	C303.777191,84.986061 307.224182,91.654541 307.087524,101.147430 
	C306.809570,120.454178 307.031433,139.768127 307.108063,159.545181 
	C307.114807,181.475281 306.913910,202.940414 307.076050,224.402802 
	C307.144928,233.520798 303.441742,239.810883 295.541351,244.300690 
	C272.403351,257.450073 249.409973,270.853973 226.135651,284.391937 
	C213.190567,291.893433 200.395737,299.035583 187.777206,306.476715 
	C180.415512,310.817932 173.516068,310.704712 166.145142,306.408722 
	C130.176590,285.445068 94.161850,264.559235 58.042320,243.857224 
	C50.235165,239.382538 46.884392,233.221329 46.922577,224.298172 
	C47.096519,183.649521 47.207058,142.997757 46.841518,102.351601 
	C46.748524,92.011345 49.973038,84.561264 59.696434,79.892120 
	C90.441406,62.168095 120.903145,44.658691 151.360947,27.142460 
	C155.114151,24.984005 158.846405,22.789118 162.810089,20.357552 
M200.943802,128.853149 
	C200.943802,128.853149 200.772110,128.857513 200.772110,128.857513 
	C200.772110,128.857513 200.962265,129.025269 201.044907,129.143997 
	C201.044907,129.143997 201.229294,129.137695 201.229294,129.137695 
	C201.229294,129.137695 201.025375,128.961365 200.943802,128.853149 
M184.940933,135.870163 
	C184.940933,135.870163 184.981247,136.013016 185.197006,136.244659 
	C185.404526,136.250687 185.612045,136.256714 185.819565,136.262741 
	C185.550720,136.168777 185.281860,136.074814 184.940933,135.870163 
M219.716629,129.069458 
	C219.546219,129.020828 219.375793,128.972214 219.205383,128.923584 
	C219.309937,129.025467 219.414490,129.127350 219.785583,129.435623 
	C219.967300,129.614029 220.024826,129.826309 220.316544,130.753265 
	C220.191498,131.495743 220.066437,132.238235 219.482178,133.030457 
	C219.482178,133.030457 219.025589,133.100494 218.628311,132.618484 
	C217.799026,131.643707 216.969742,130.668945 216.913010,130.602249 
	C213.458008,131.914124 210.580551,133.006714 207.703094,134.099289 
	C207.419891,134.689041 207.136688,135.278778 206.853485,135.868515 
	C208.125473,136.615753 209.397446,137.362991 210.349121,138.561844 
	C209.572281,139.064087 208.795456,139.566330 207.223007,140.026108 
	C202.828400,139.730286 198.433777,139.434448 193.883820,138.630356 
	C193.254166,139.003555 192.624512,139.376740 191.109207,139.805649 
	C189.063065,139.657333 187.016907,139.509018 184.765884,138.853500 
	C182.644272,136.819443 182.000717,132.258316 177.480881,134.309738 
	C177.236511,136.067383 177.023682,137.598297 176.240417,138.874298 
	C176.082626,138.738358 175.924820,138.602432 175.503754,138.008072 
	C174.324249,136.061035 173.144730,134.113998 172.474136,133.007004 
	C167.502045,133.722168 162.889008,134.177689 158.390137,135.157455 
	C157.012100,135.457565 155.947174,137.195328 154.465286,138.390884 
	C154.465286,138.390884 154.170471,138.353455 153.737320,137.694427 
	C151.833359,137.116684 149.929398,136.538956 147.943695,135.852921 
	C147.943695,135.852921 147.771362,135.857300 147.771362,135.857300 
	C147.771362,135.857300 147.961029,136.026031 148.314697,136.690460 
	C148.680878,137.366364 149.047058,138.042252 149.548294,138.978714 
	C149.548294,138.978714 149.379578,139.218857 148.792145,138.857971 
	C147.655487,138.050217 146.518829,137.242462 145.297043,136.374207 
	C145.011414,137.505722 144.796432,138.357407 143.881363,139.205460 
	C141.752151,138.602402 139.622940,137.999344 137.493713,137.396286 
	C137.372940,137.811234 137.252151,138.226181 137.131378,138.641129 
	C139.707748,139.322937 142.284134,140.004745 145.491898,141.216522 
	C146.863586,141.418365 148.235260,141.620224 150.460434,141.679565 
	C169.643936,141.752899 188.827438,141.826218 208.720779,141.757492 
	C213.011673,138.917908 217.302582,136.078323 222.080475,132.810165 
	C228.854462,122.582230 228.677139,113.464249 221.195374,108.729614 
	C222.049347,110.657005 222.742233,112.220863 223.161652,114.027428 
	C223.349014,114.352394 223.536377,114.677353 223.976593,115.722610 
	C224.206238,117.452995 224.435883,119.183388 224.151276,120.537743 
	C222.634201,120.005386 221.117111,119.473030 219.600037,118.940681 
	C219.396729,119.322739 219.193420,119.704803 218.990128,120.086861 
	C220.387497,121.423820 221.784882,122.760788 223.406326,124.706772 
	C222.245544,126.513741 221.084763,128.320709 219.766129,129.750610 
	C219.766129,129.750610 219.838196,129.351059 219.716629,129.069458 
M188.055405,133.153839 
	C188.055405,133.153839 188.233414,133.146042 188.233414,133.146042 
	C188.233414,133.146042 188.044693,132.970734 187.820236,132.740189 
	C187.602158,132.735748 187.384079,132.731308 187.166000,132.726852 
	C187.434219,132.833160 187.702423,132.939453 188.055405,133.153839 
M204.560913,110.247749 
	C206.551285,109.319420 208.541656,108.391098 210.532028,107.462769 
	C210.380264,107.054329 210.228500,106.645882 210.076736,106.237434 
	C208.061447,106.820686 206.046173,107.403938 203.474854,107.644363 
	C202.329315,106.895241 201.183777,106.146111 200.038239,105.396988 
	C199.620392,105.692825 199.202545,105.988670 198.784698,106.284508 
	C199.461975,107.907776 199.999359,109.623100 200.949432,111.066833 
	C201.114532,111.317696 203.022812,110.421394 204.560913,110.247749 
M128.608612,121.391594 
	C129.343353,117.724030 130.078110,114.056473 130.987091,109.519211 
	C126.911400,113.517334 126.919815,117.716629 127.149673,122.570908 
	C127.394272,122.835587 127.638870,123.100266 127.883469,123.364937 
	C128.031616,122.942909 128.179764,122.520882 128.608612,121.391594 
M141.054718,108.156776 
	C141.054718,108.156776 141.234360,108.147018 141.234360,108.147018 
	C141.234360,108.147018 141.046448,107.969833 141.450180,107.516312 
	C144.033432,105.421890 145.254639,103.348625 141.440353,101.254501 
	C139.356079,103.478683 135.318329,105.484924 141.054718,108.156776 
M232.355515,248.380203 
	C232.224075,247.950607 232.092636,247.521011 231.526596,246.388046 
	C231.411697,244.758255 231.470505,243.091202 231.131348,241.509506 
	C230.814835,240.033264 230.399902,237.773697 229.448639,237.420639 
	C227.901215,236.846283 225.881317,237.544952 224.952164,237.627319 
	C226.407364,239.172882 227.661606,240.505020 228.177094,241.993118 
	C226.969376,242.422073 225.518448,242.570908 224.617462,243.353149 
	C223.564987,244.266922 222.992447,245.733444 222.211700,246.960159 
	C223.726151,247.493561 225.210297,248.178497 226.769073,248.490128 
	C227.448318,248.625931 228.280670,247.995850 229.535217,248.143524 
	C230.330902,248.279114 231.126572,248.414688 232.355515,248.380203 
M183.954956,91.703926 
	C183.461060,93.489571 182.967163,95.275223 182.451218,97.140549 
	C185.551910,98.373177 188.276901,98.721931 190.672791,94.759720 
	C195.695969,92.544159 200.557800,92.062836 205.002884,96.837379 
	C206.222794,98.866936 207.442703,100.896492 208.897659,103.549171 
	C210.986298,104.385841 210.986298,104.385841 211.203674,102.675346 
	C211.944351,96.847252 206.491898,91.808662 198.912323,90.926704 
	C197.142487,90.720764 194.750809,89.893143 193.911789,88.556526 
	C182.950623,71.094604 157.490631,70.539078 145.807373,87.969643 
	C147.359711,87.251595 148.702209,86.243767 150.016464,85.200386 
	C157.407700,79.332466 165.805450,76.860527 175.177490,77.868729 
	C181.708496,78.571312 189.506241,84.988335 190.560516,90.836937 
	C189.044159,90.539322 187.527817,90.241707 185.898941,89.375397 
	C185.488159,88.614395 185.077393,87.853394 184.666626,87.092392 
	C184.309708,87.173073 183.952805,87.253754 183.595886,87.334435 
	C183.723785,88.551964 183.851685,89.769493 183.954956,91.703926 
M140.851013,247.806885 
	C142.710892,248.183197 144.570770,248.559525 147.787354,249.210358 
	C143.515350,243.622803 145.056412,240.291275 149.640274,237.517975 
	C147.346191,237.517975 145.052109,237.517975 142.599442,237.517975 
	C142.721954,239.559647 143.250702,241.431625 142.817444,243.045349 
	C142.357239,244.759521 140.984650,246.228729 139.400391,247.192703 
	C138.924561,245.544891 138.139175,243.917465 138.029114,242.245560 
	C137.651535,236.510361 135.684143,235.457809 130.579514,238.494720 
	C132.052933,238.913406 133.526352,239.332077 136.133667,240.072952 
	C133.163635,242.363617 130.976364,244.050568 128.530838,245.936722 
	C132.190842,250.504715 136.176285,248.476395 140.851013,247.806885 
M179.539795,205.544342 
	C178.322205,203.409073 176.469498,201.393356 176.039719,199.109818 
	C175.433960,195.891235 175.888748,192.474289 175.878418,189.142181 
	C175.847153,179.056946 171.364105,175.928452 161.850052,179.288788 
	C160.495178,179.767319 158.294281,180.722443 157.753983,180.183868 
	C153.181290,175.625763 150.017380,180.790649 147.431900,180.756470 
	C148.430649,183.933060 149.663208,186.567902 150.018677,189.316193 
	C150.442535,192.593201 150.024887,195.970459 150.136932,199.298737 
	C150.255463,202.819656 148.963959,205.449661 145.246246,205.361664 
	C141.771576,205.279434 140.765732,202.697937 140.837952,199.379288 
	C140.989136,192.433197 140.883774,185.481552 140.883774,178.039444 
	C137.299667,178.916840 133.723389,179.792328 129.751648,180.764618 
	C136.030441,186.682571 135.845123,201.319717 129.191406,206.004242 
	C125.497444,204.660263 124.372711,201.931610 124.580490,198.171112 
	C124.791588,194.350494 124.774551,190.498642 124.559967,186.677170 
	C124.178185,179.877930 120.078232,176.824066 113.401993,178.300018 
	C111.303062,178.764008 109.334862,179.818893 107.236061,180.284073 
	C106.117844,180.531906 104.530197,180.520920 103.702484,179.898224 
	C100.146393,177.223129 96.577950,177.738739 92.824425,179.208130 
	C91.639595,179.671967 89.730484,180.509216 89.179840,180.019928 
	C84.518654,175.877731 81.219330,180.661224 77.083290,181.264343 
	C83.410217,184.076157 81.091934,189.412552 81.303802,193.757248 
	C81.528236,198.359634 82.510735,203.351715 76.764793,206.661041 
	C82.241898,206.661041 86.702881,206.661041 90.138290,206.661041 
	C89.370239,203.474640 88.420143,200.702957 88.094559,197.859756 
	C87.755501,194.898834 88.226517,191.850769 87.966591,188.873703 
	C87.644073,185.179825 88.860504,183.235428 92.766335,183.003586 
	C96.750084,182.767120 99.637405,184.158829 99.616074,188.314545 
	C99.584190,194.525192 101.831596,201.163437 96.426788,206.684570 
	C101.170990,206.684570 105.323143,206.684570 108.419632,206.684570 
	C107.621696,203.400543 106.622978,200.462479 106.256180,197.447525 
	C105.896568,194.491653 106.338730,191.447021 106.140427,188.460495 
	C105.899689,184.835190 107.569489,183.265137 111.017708,183.033051 
	C114.644569,182.788940 117.853455,183.859436 117.761032,187.830017 
	C117.613655,194.161957 120.307617,200.996201 113.737694,207.659180 
	C120.185112,207.085022 125.080490,206.649078 130.725204,206.856720 
	C140.515030,206.856720 150.304871,206.856720 159.093567,206.856720 
	C158.302200,203.251007 157.342438,200.040253 156.953812,196.761810 
	C156.604736,193.817093 157.013885,190.790710 156.847290,187.813843 
	C156.687286,184.954605 157.837082,183.357239 160.669937,183.149231 
	C163.818542,182.918015 168.188889,182.354660 168.553299,186.235641 
	C169.188156,192.997025 171.302322,200.225388 165.519089,207.583450 
	C171.033691,207.061646 175.501678,206.638870 180.880539,206.538361 
	C185.795334,206.772812 190.710144,207.007278 195.531113,207.237244 
	C189.020477,197.464188 193.354691,187.549026 192.360764,177.929413 
	C188.431107,178.931137 184.826904,179.849899 182.422287,180.462860 
	C183.547867,184.153305 184.727936,187.070419 185.270096,190.101639 
	C185.702484,192.519012 185.154907,195.095703 185.401474,197.565826 
	C185.840851,201.967621 184.347000,204.978439 179.539795,205.544342 
M238.535446,215.560287 
	C238.391815,213.036331 238.248169,210.512360 238.102051,207.944595 
	C239.934799,207.944595 240.927353,207.890137 241.912430,207.952911 
	C253.457764,208.688705 261.273834,200.457520 259.890594,189.002197 
	C258.866882,180.524338 251.703766,176.059128 243.580933,178.798187 
	C242.203217,179.262756 240.161194,180.326279 239.448944,179.779831 
	C234.700623,176.136887 231.378769,180.523285 228.678650,180.687042 
	C229.675064,184.064835 231.066956,186.882889 231.243500,189.775116 
	C231.617554,195.903076 231.390030,202.069946 231.346603,208.220428 
	C231.317932,212.280472 232.462921,216.762024 227.724274,219.405197 
	C233.346313,219.405197 238.968353,219.405197 244.590408,219.405197 
	C244.635864,219.141891 244.681335,218.878586 244.726791,218.615280 
	C242.838028,217.810959 240.949265,217.006638 238.535446,215.560287 
M215.023834,189.949890 
	C211.381805,191.424789 207.761429,192.956223 204.092651,194.361313 
	C198.579453,196.472794 196.737961,199.477737 198.537491,203.633881 
	C200.243774,207.574631 205.130829,209.221497 209.619873,207.288101 
	C211.425995,206.510223 213.152115,205.546646 214.808548,204.720505 
	C219.907593,209.150253 222.942566,209.140213 227.607590,204.324646 
	C221.590805,204.738129 221.868347,200.903534 222.001083,197.079620 
	C222.093491,194.417648 222.022705,191.749878 222.017914,189.084686 
	C221.999832,178.997574 218.605209,176.303925 208.653046,178.781372 
	C205.950073,179.454208 203.411530,180.787704 200.797516,181.817993 
	C201.006592,182.427734 201.215652,183.037476 201.424713,183.647202 
	C203.817322,183.416138 206.205933,183.125076 208.603302,182.965836 
	C214.578491,182.568970 215.171783,183.142014 215.023834,189.949890 
M262.199890,181.456726 
	C267.280975,184.353821 265.930573,189.267029 265.949799,193.688797 
	C265.969727,198.272263 267.265808,203.248260 261.450256,206.698151 
	C267.194855,206.698151 271.794464,206.698151 276.105164,206.698151 
	C269.231842,197.742310 274.406708,187.580307 272.729340,177.933334 
	C269.156982,178.930542 265.842285,179.855835 262.199890,181.456726 
M175.892456,245.720062 
	C175.754639,235.008408 174.375305,236.745773 164.891327,237.843842 
	C164.891327,241.386475 164.891327,244.918320 164.891327,248.450165 
	C165.278244,248.696030 165.665146,248.941895 166.052063,249.187775 
	C166.752380,248.289108 167.796768,247.481430 168.064621,246.468430 
	C168.388519,245.243500 167.718246,243.737045 168.097672,242.550522 
	C168.501755,241.286957 169.629898,240.254944 170.441925,239.121841 
	C171.289093,240.289536 172.581070,241.355560 172.876816,242.649307 
	C173.296722,244.486145 172.983414,246.490616 172.983414,248.423447 
	C173.340286,248.668839 173.697144,248.914230 174.054016,249.159622 
	C174.700806,248.261154 175.347595,247.362671 175.892456,245.720062 
M119.545280,243.417206 
	C120.496506,243.204163 121.559151,243.189758 122.373611,242.732895 
	C123.694550,241.991943 124.852730,240.960846 126.079613,240.052231 
	C124.654083,239.010422 122.911118,236.862274 121.870201,237.160950 
	C119.809532,237.752197 117.146202,239.381454 116.580376,241.167252 
	C116.007027,242.976761 117.060127,246.143539 118.525475,247.508240 
	C119.855362,248.746796 122.698425,248.360550 125.796654,248.830551 
	C122.790421,246.652298 121.066223,245.403000 119.545280,243.417206 
M254.205627,237.036423 
	C251.051559,236.554626 248.143600,237.402023 247.491806,240.621246 
	C247.067200,242.718338 247.626953,245.847244 249.019470,247.244629 
	C250.400375,248.630386 253.377747,248.425293 255.654953,248.917923 
	C255.701294,248.549393 255.747635,248.180878 255.793961,247.812363 
	C253.802292,246.723892 251.810623,245.635422 249.818954,244.546951 
	C258.325073,241.654327 258.426697,241.515533 254.205627,237.036423 
M214.583786,248.685226 
	C216.158371,248.664032 217.309052,249.017487 216.467255,246.328705 
	C215.546295,243.387085 214.560577,239.530655 219.053070,238.304413 
	C217.991531,237.034943 217.067749,235.930206 216.143967,234.825470 
	C217.613953,233.643890 219.083923,232.462326 220.515488,231.311630 
	C217.689377,229.866333 215.605423,230.655930 214.110764,234.021027 
	C211.969666,238.841431 213.789581,243.750290 214.583786,248.685226 
M197.578430,242.625885 
	C196.900955,241.448074 196.488708,239.700317 195.481277,239.231491 
	C194.109848,238.593246 192.284012,238.931396 190.653015,238.850845 
	C190.524811,241.450500 189.561996,244.401733 190.472763,246.563705 
	C191.701706,249.481018 195.121475,249.456467 197.568085,247.599869 
	C195.834412,246.636856 193.914749,245.570511 191.995087,244.504181 
	C192.169601,244.071182 192.344116,243.638184 192.518631,243.205170 
	C193.972519,243.052780 195.426392,242.900391 197.578430,242.625885 
M109.849113,246.400085 
	C110.603027,247.308624 111.356949,248.217148 112.904572,250.082184 
	C112.904572,242.427505 112.904572,236.709000 112.904572,230.568695 
	C111.343384,230.798737 110.172729,230.971252 109.941124,231.005371 
	C109.941124,236.203232 109.941124,240.905136 109.849113,246.400085 
M133.718079,165.085724 
	C131.210144,167.675781 132.659103,169.805008 134.970200,171.032333 
	C136.144043,171.655701 138.806854,171.372101 139.530060,170.476181 
	C140.474182,169.306595 140.896881,166.746933 140.234802,165.457535 
	C138.968887,162.992126 136.628952,162.151535 133.718079,165.085724 
M271.843140,164.870865 
	C269.714478,162.468735 267.402008,162.599365 265.760437,165.104935 
	C265.002289,166.262115 264.777161,168.810638 265.524231,169.657730 
	C266.542328,170.812103 269.064789,171.818283 270.326721,171.322205 
	C272.621338,170.420181 274.386414,168.340637 271.843140,164.870865 
M184.020264,166.790848 
	C185.067871,171.357086 187.405106,173.177017 190.042221,171.242477 
	C191.239059,170.364502 192.699829,168.458817 192.464813,167.354858 
	C192.144669,165.851044 190.408997,163.720428 189.112228,163.594925 
	C187.597015,163.448257 185.900848,165.171051 184.020264,166.790848 
M205.384232,244.083832 
	C206.652313,241.887268 207.920395,239.690704 209.148880,237.562729 
	C207.251205,237.562729 204.936127,237.562729 202.552185,237.562729 
	C202.552185,241.441528 202.552185,244.948807 202.552185,248.737305 
	C204.008392,248.625092 205.403671,248.517578 206.882523,248.403625 
	C206.295319,246.993576 205.857193,245.941513 205.384232,244.083832 
M102.440895,238.782288 
	C103.529465,238.730698 104.618034,238.679123 105.706612,238.627548 
	C102.624390,236.296021 99.556168,236.593292 98.229355,239.636627 
	C97.357460,241.636505 97.556961,244.879669 98.655701,246.760468 
	C99.947037,248.970947 102.752808,250.087173 105.404099,247.578735 
	C99.095245,245.313171 98.063293,242.899490 102.440895,238.782288 
M186.580673,237.883301 
	C184.232712,237.651001 181.977203,233.571564 179.937866,237.004456 
	C180.282516,240.042877 180.736679,242.405792 180.778091,244.775925 
	C180.849655,248.873413 182.565338,249.605164 184.954437,248.366425 
	C184.206467,245.966431 183.029221,244.018753 183.230927,242.226242 
	C183.378082,240.918564 185.342392,239.815369 186.580673,237.883301 
M160.845917,244.860306 
	C160.845917,242.413132 160.845917,239.965973 160.845917,237.518799 
	C159.971191,237.355621 159.096451,237.192444 158.221725,237.029266 
	C156.937576,240.533737 158.825226,244.747375 157.588516,248.262451 
	C158.166168,248.512405 158.743820,248.762360 159.321472,249.012314 
	C159.848969,247.892990 160.376450,246.773682 160.845917,244.860306 
M242.713974,247.112091 
	C237.048431,246.534760 237.520813,242.275467 238.046570,237.498459 
	C234.776855,240.727325 233.921906,243.629074 236.301453,246.455383 
	C238.057098,248.540665 240.485504,250.506073 242.713974,247.112091 
M128.293442,125.466026 
	C127.933701,131.075073 131.642029,133.837936 135.691315,136.347000 
	C133.442108,132.807739 131.192917,129.268478 128.293442,125.466026 
M143.680542,94.260651 
	C143.534470,93.430351 143.388397,92.600052 143.242325,91.769760 
	C142.913666,91.737617 142.585007,91.705475 142.256332,91.673340 
	C141.612640,93.681351 140.968933,95.689369 140.325241,97.697380 
	C140.620193,97.864494 140.915146,98.031616 141.210083,98.198730 
	C141.965942,97.088638 142.721786,95.978554 143.680542,94.260651 
M131.680740,107.477898 
	C131.626205,107.912315 131.571671,108.346733 131.517151,108.781151 
	C132.113144,108.375412 132.709137,107.969673 133.305145,107.563950 
	C132.874420,107.390678 132.443680,107.217400 131.680740,107.477898 
M203.474487,103.043846 
	C203.728622,103.497444 203.982758,103.951050 204.236877,104.404655 
	C204.542053,104.106216 204.847214,103.807777 205.152390,103.509338 
	C204.701904,103.241959 204.251404,102.974586 203.474487,103.043846 
M215.272888,104.116432 
	C214.963120,103.866333 214.657333,103.610565 214.332336,103.382111 
	C214.315308,103.370155 214.135117,103.590317 214.030884,103.702408 
	C214.360291,103.933250 214.689713,104.164101 215.272888,104.116432 
M217.317535,105.255234 
	C217.405029,105.444458 217.492538,105.633682 217.580032,105.822906 
	C217.565857,105.600304 217.551682,105.377701 217.317535,105.255234 
M135.800858,106.205444 
	C135.800858,106.205444 135.549042,105.974449 135.549042,105.974449 
	C135.549042,105.974449 135.704895,106.288109 135.800858,106.205444 
M206.937561,130.584625 
	C206.937561,130.584625 207.116135,130.462921 207.116135,130.462921 
	C207.116135,130.462921 206.889969,130.474350 206.937561,130.584625 
M144.485535,89.452187 
	C144.485535,89.452187 144.485275,89.490868 144.485535,89.452187 
M191.500397,132.472855 
	C191.500397,132.472855 191.515518,132.513489 191.500397,132.472855 
M201.527847,133.500458 
	C201.527847,133.500458 201.487152,133.515549 201.527847,133.500458 
M203.499115,134.527939 
	C203.499115,134.527939 203.483490,134.486374 203.499115,134.527939 
M199.472809,135.499420 
	C199.472809,135.499420 199.513489,135.484299 199.472809,135.499420 
M198.471893,138.498795 
	C198.471893,138.498795 198.514496,138.482697 198.471893,138.498795 
M216.499481,126.527367 
	C216.499481,126.527367 216.484192,126.486397 216.499481,126.527367 
M198.526901,126.500214 
	C198.526901,126.500214 198.486862,126.515022 198.526901,126.500214 
M214.501007,124.471710 
	C214.501007,124.471710 214.516541,124.513290 214.501007,124.471710 
z"/>
<path fill="#55CDA6" opacity="1.000000" stroke="none" 
	d="
M129.975861,206.213135 
	C125.080490,206.649078 120.185112,207.085022 113.737694,207.659180 
	C120.307617,200.996201 117.613655,194.161957 117.761032,187.830017 
	C117.853455,183.859436 114.644569,182.788940 111.017708,183.033051 
	C107.569489,183.265137 105.899689,184.835190 106.140427,188.460495 
	C106.338730,191.447021 105.896568,194.491653 106.256180,197.447525 
	C106.622978,200.462479 107.621696,203.400543 108.419632,206.684570 
	C105.323143,206.684570 101.170990,206.684570 96.426788,206.684570 
	C101.831596,201.163437 99.584190,194.525192 99.616074,188.314545 
	C99.637405,184.158829 96.750084,182.767120 92.766335,183.003586 
	C88.860504,183.235428 87.644073,185.179825 87.966591,188.873703 
	C88.226517,191.850769 87.755501,194.898834 88.094559,197.859756 
	C88.420143,200.702957 89.370239,203.474640 90.138290,206.661041 
	C86.702881,206.661041 82.241898,206.661041 76.764793,206.661041 
	C82.510735,203.351715 81.528236,198.359634 81.303802,193.757248 
	C81.091934,189.412552 83.410217,184.076157 77.083290,181.264343 
	C81.219330,180.661224 84.518654,175.877731 89.179840,180.019928 
	C89.730484,180.509216 91.639595,179.671967 92.824425,179.208130 
	C96.577950,177.738739 100.146393,177.223129 103.702484,179.898224 
	C104.530197,180.520920 106.117844,180.531906 107.236061,180.284073 
	C109.334862,179.818893 111.303062,178.764008 113.401993,178.300018 
	C120.078232,176.824066 124.178185,179.877930 124.559967,186.677170 
	C124.774551,190.498642 124.791588,194.350494 124.580490,198.171112 
	C124.372711,201.931610 125.497444,204.660263 129.590851,206.146835 
	C129.990311,206.289429 129.975861,206.213135 129.975861,206.213135 
z"/>
<path fill="#56CEA7" opacity="1.000000" stroke="none" 
	d="
M130.350525,206.534927 
	C129.975861,206.213135 129.990311,206.289429 129.987503,206.312531 
	C135.845123,201.319717 136.030441,186.682571 129.751648,180.764618 
	C133.723389,179.792328 137.299667,178.916840 140.883774,178.039444 
	C140.883774,185.481552 140.989136,192.433197 140.837952,199.379288 
	C140.765732,202.697937 141.771576,205.279434 145.246246,205.361664 
	C148.963959,205.449661 150.255463,202.819656 150.136932,199.298737 
	C150.024887,195.970459 150.442535,192.593201 150.018677,189.316193 
	C149.663208,186.567902 148.430649,183.933060 147.431900,180.756470 
	C150.017380,180.790649 153.181290,175.625763 157.753983,180.183868 
	C158.294281,180.722443 160.495178,179.767319 161.850052,179.288788 
	C171.364105,175.928452 175.847153,179.056946 175.878418,189.142181 
	C175.888748,192.474289 175.433960,195.891235 176.039719,199.109818 
	C176.469498,201.393356 178.322205,203.409073 179.761566,205.894012 
	C179.983337,206.243683 179.969666,206.216110 179.969666,206.216110 
	C175.501678,206.638870 171.033691,207.061646 165.519089,207.583450 
	C171.302322,200.225388 169.188156,192.997025 168.553299,186.235641 
	C168.188889,182.354660 163.818542,182.918015 160.669937,183.149231 
	C157.837082,183.357239 156.687286,184.954605 156.847290,187.813843 
	C157.013885,190.790710 156.604736,193.817093 156.953812,196.761810 
	C157.342438,200.040253 158.302200,203.251007 159.093567,206.856720 
	C150.304871,206.856720 140.515030,206.856720 130.350525,206.534927 
z"/>
<path fill="#57CEA7" opacity="1.000000" stroke="none" 
	d="
M238.797974,215.881302 
	C240.949265,217.006638 242.838028,217.810959 244.726791,218.615280 
	C244.681335,218.878586 244.635864,219.141891 244.590408,219.405197 
	C238.968353,219.405197 233.346313,219.405197 227.724274,219.405197 
	C232.462921,216.762024 231.317932,212.280472 231.346603,208.220428 
	C231.390030,202.069946 231.617554,195.903076 231.243500,189.775116 
	C231.066956,186.882889 229.675064,184.064835 228.678650,180.687042 
	C231.378769,180.523285 234.700623,176.136887 239.448944,179.779831 
	C240.161194,180.326279 242.203217,179.262756 243.580933,178.798187 
	C251.703766,176.059128 258.866882,180.524338 259.890594,189.002197 
	C261.273834,200.457520 253.457764,208.688705 241.912430,207.952911 
	C240.927353,207.890137 239.934799,207.944595 238.102051,207.944595 
	C238.248169,210.512360 238.391815,213.036331 238.797974,215.881302 
M252.348206,188.632065 
	C252.104996,188.015961 251.929688,187.361526 251.607376,186.790054 
	C249.733414,183.467392 247.121506,181.426132 243.080231,182.370117 
	C238.918243,183.342316 237.675781,186.261429 237.993530,190.240524 
	C238.151459,192.218109 238.009415,194.218826 238.022659,196.208939 
	C238.059967,201.813629 239.992706,204.038116 245.032867,204.296722 
	C249.815979,204.542130 252.640198,202.021378 252.992172,196.822220 
	C253.158401,194.366974 252.793213,191.875778 252.348206,188.632065 
z"/>
<path fill="#55CDA6" opacity="1.000000" stroke="none" 
	d="
M215.139481,189.538055 
	C215.171783,183.142014 214.578491,182.568970 208.603302,182.965836 
	C206.205933,183.125076 203.817322,183.416138 201.424713,183.647202 
	C201.215652,183.037476 201.006592,182.427734 200.797516,181.817993 
	C203.411530,180.787704 205.950073,179.454208 208.653046,178.781372 
	C218.605209,176.303925 221.999832,178.997574 222.017914,189.084686 
	C222.022705,191.749878 222.093491,194.417648 222.001083,197.079620 
	C221.868347,200.903534 221.590805,204.738129 227.607590,204.324646 
	C222.942566,209.140213 219.907593,209.150253 214.808548,204.720505 
	C213.152115,205.546646 211.425995,206.510223 209.619873,207.288101 
	C205.130829,209.221497 200.243774,207.574631 198.537491,203.633881 
	C196.737961,199.477737 198.579453,196.472794 204.092651,194.361313 
	C207.761429,192.956223 211.381805,191.424789 215.139481,189.538055 
M214.393387,194.398392 
	C212.194962,195.136215 209.781006,195.532242 207.875076,196.733978 
	C206.637299,197.514420 206.140289,199.469666 205.311386,200.898560 
	C206.886749,201.811523 208.473724,203.509094 210.035263,203.486008 
	C214.230667,203.423965 215.880463,200.172485 214.393387,194.398392 
z"/>
<path fill="#57CEA7" opacity="1.000000" stroke="none" 
	d="
M180.425110,206.377228 
	C179.969666,206.216110 179.983337,206.243683 179.974670,206.264191 
	C184.347000,204.978439 185.840851,201.967621 185.401474,197.565826 
	C185.154907,195.095703 185.702484,192.519012 185.270096,190.101639 
	C184.727936,187.070419 183.547867,184.153305 182.422287,180.462860 
	C184.826904,179.849899 188.431107,178.931137 192.360764,177.929413 
	C193.354691,187.549026 189.020477,197.464188 195.531113,207.237244 
	C190.710144,207.007278 185.795334,206.772812 180.425110,206.377228 
z"/>
<path fill="#56CEA7" opacity="1.000000" stroke="none" 
	d="
M262.363739,181.118927 
	C265.842285,179.855835 269.156982,178.930542 272.729340,177.933334 
	C274.406708,187.580307 269.231842,197.742310 276.105164,206.698151 
	C271.794464,206.698151 267.194855,206.698151 261.450256,206.698151 
	C267.265808,203.248260 265.969727,198.272263 265.949799,193.688797 
	C265.930573,189.267029 267.280975,184.353821 262.363739,181.118927 
z"/>
<path fill="#63D2AE" opacity="1.000000" stroke="none" 
	d="
M204.999908,96.092720 
	C200.557800,92.062836 195.695969,92.544159 190.173203,94.737961 
	C190.124374,93.789398 190.575134,92.862602 191.274628,91.852188 
	C191.371002,91.488411 191.218658,91.208260 191.106018,90.937363 
	C191.145737,90.946617 191.188751,90.877327 191.188751,90.877327 
	C189.506241,84.988335 181.708496,78.571312 175.177490,77.868729 
	C165.805450,76.860527 157.407700,79.332466 150.016464,85.200386 
	C148.702209,86.243767 147.359711,87.251595 145.807373,87.969643 
	C157.490631,70.539078 182.950623,71.094604 193.911789,88.556526 
	C194.750809,89.893143 197.142487,90.720764 198.912323,90.926704 
	C206.491898,91.808662 211.944351,96.847252 211.203674,102.675346 
	C210.986298,104.385841 210.986298,104.385841 208.821045,102.873947 
	C207.496262,100.163391 206.248077,98.128052 204.999908,96.092720 
z"/>
<path fill="#75D4B5" opacity="1.000000" stroke="none" 
	d="
M194.039169,139.138611 
	C198.433777,139.434448 202.828400,139.730286 207.613556,140.352478 
	C208.006393,141.085754 208.008667,141.492661 208.010941,141.899567 
	C188.827438,141.826218 169.643936,141.752899 149.995728,141.423981 
	C149.480545,140.518555 149.430069,139.868698 149.379578,139.218857 
	C149.379578,139.218857 149.548294,138.978714 149.772308,138.851318 
	C151.387711,138.600433 152.779099,138.476944 154.170471,138.353455 
	C154.170471,138.353455 154.465286,138.390884 154.659637,138.315552 
	C154.854004,138.240204 154.867233,138.121857 155.043442,138.408630 
	C155.861008,138.864975 156.502350,139.034561 157.395340,139.181839 
	C158.273026,138.949142 158.899094,138.738754 159.734375,138.693817 
	C160.400085,138.667892 160.856567,138.476517 161.647461,138.387558 
	C166.580994,140.866043 171.175003,140.245224 175.767029,138.466507 
	C175.924820,138.602432 176.082626,138.738358 176.779083,139.239655 
	C178.227692,139.685654 179.137619,139.766327 180.293640,139.809036 
	C180.854645,139.613480 181.068710,139.367950 181.501221,139.148041 
	C182.870605,139.294647 183.920685,139.327682 184.970764,139.360718 
	C187.016907,139.509018 189.063065,139.657333 191.836151,139.838654 
	C193.055130,139.627304 193.547150,139.382965 194.039169,139.138611 
z"/>
<path fill="#EBEDED" opacity="1.000000" stroke="none" 
	d="
M159.525146,138.528381 
	C158.899094,138.738754 158.273026,138.949142 157.153046,138.962433 
	C156.061829,138.550858 155.464523,138.336349 154.867233,138.121857 
	C154.867233,138.121857 154.854004,138.240204 154.796417,138.257462 
	C155.947174,137.195328 157.012100,135.457565 158.390137,135.157455 
	C162.889008,134.177689 167.502045,133.722168 172.474136,133.007004 
	C173.144730,134.113998 174.324249,136.061035 175.635391,138.237289 
	C171.175003,140.245224 166.580994,140.866043 161.507172,138.265778 
	C161.032440,138.041565 160.751114,137.798828 160.701630,137.799713 
	C160.652161,137.800598 160.382507,137.711166 160.161423,137.908401 
	C159.801941,138.246536 159.663544,138.387451 159.525146,138.528381 
z"/>
<path fill="#75D4B5" opacity="1.000000" stroke="none" 
	d="
M175.943420,246.092133 
	C175.347595,247.362671 174.700806,248.261154 174.054016,249.159622 
	C173.697144,248.914230 173.340286,248.668839 172.983414,248.423447 
	C172.983414,246.490616 173.296722,244.486145 172.876816,242.649307 
	C172.581070,241.355560 171.289093,240.289536 170.441925,239.121841 
	C169.629898,240.254944 168.501755,241.286957 168.097672,242.550522 
	C167.718246,243.737045 168.388519,245.243500 168.064621,246.468430 
	C167.796768,247.481430 166.752380,248.289108 166.052063,249.187775 
	C165.665146,248.941895 165.278244,248.696030 164.891327,248.450165 
	C164.891327,244.918320 164.891327,241.386475 164.891327,237.843842 
	C174.375305,236.745773 175.754639,235.008408 175.943420,246.092133 
z"/>
<path fill="#6ED5B4" opacity="1.000000" stroke="none" 
	d="
M119.443657,243.785446 
	C121.066223,245.403000 122.790421,246.652298 125.796654,248.830551 
	C122.698425,248.360550 119.855362,248.746796 118.525475,247.508240 
	C117.060127,246.143539 116.007027,242.976761 116.580376,241.167252 
	C117.146202,239.381454 119.809532,237.752197 121.870201,237.160950 
	C122.911118,236.862274 124.654083,239.010422 126.079613,240.052231 
	C124.852730,240.960846 123.694550,241.991943 122.373611,242.732895 
	C121.559151,243.189758 120.496506,243.204163 119.443657,243.785446 
z"/>
<path fill="#6ED5B4" opacity="1.000000" stroke="none" 
	d="
M139.991791,247.663177 
	C136.176285,248.476395 132.190842,250.504715 128.530838,245.936722 
	C130.976364,244.050568 133.163635,242.363617 136.133667,240.072952 
	C133.526352,239.332077 132.052933,238.913406 130.579575,238.491714 
	C135.684143,235.457809 137.651535,236.510361 138.029114,242.245560 
	C138.139175,243.917465 138.924561,245.544891 139.702545,247.475861 
	C140.004715,247.759003 139.991791,247.663177 139.991791,247.663177 
z"/>
<path fill="#6AD4B2" opacity="1.000000" stroke="none" 
	d="
M254.592285,237.149994 
	C258.426697,241.515533 258.325073,241.654327 249.818954,244.546951 
	C251.810623,245.635422 253.802292,246.723892 255.793961,247.812363 
	C255.747635,248.180878 255.701294,248.549393 255.654953,248.917923 
	C253.377747,248.425293 250.400375,248.630386 249.019470,247.244629 
	C247.626953,245.847244 247.067200,242.718338 247.491806,240.621246 
	C248.143600,237.402023 251.051559,236.554626 254.592285,237.149994 
z"/>
<path fill="#63D2AE" opacity="1.000000" stroke="none" 
	d="
M214.260742,248.653412 
	C213.789581,243.750290 211.969666,238.841431 214.110764,234.021027 
	C215.605423,230.655930 217.689377,229.866333 220.515488,231.311630 
	C219.083923,232.462326 217.613953,233.643890 216.143967,234.825470 
	C217.067749,235.930206 217.991531,237.034943 219.053070,238.304413 
	C214.560577,239.530655 215.546295,243.387085 216.467255,246.328705 
	C217.309052,249.017487 216.158371,248.664032 214.260742,248.653412 
z"/>
<path fill="#75D4B5" opacity="1.000000" stroke="none" 
	d="
M197.229355,242.686951 
	C195.426392,242.900391 193.972519,243.052780 192.518631,243.205170 
	C192.344116,243.638184 192.169601,244.071182 191.995087,244.504181 
	C193.914749,245.570511 195.834412,246.636856 197.568085,247.599869 
	C195.121475,249.456467 191.701706,249.481018 190.472763,246.563705 
	C189.561996,244.401733 190.524811,241.450500 190.653015,238.850845 
	C192.284012,238.931396 194.109848,238.593246 195.481277,239.231491 
	C196.488708,239.700317 196.900955,241.448074 197.229355,242.686951 
z"/>
<path fill="#75D4B5" opacity="1.000000" stroke="none" 
	d="
M109.895119,246.003571 
	C109.941124,240.905136 109.941124,236.203232 109.941124,231.005371 
	C110.172729,230.971252 111.343384,230.798737 112.904572,230.568695 
	C112.904572,236.709000 112.904572,242.427505 112.904572,250.082184 
	C111.356949,248.217148 110.603027,247.308624 109.895119,246.003571 
z"/>
<path fill="#57CEA7" opacity="1.000000" stroke="none" 
	d="
M133.970734,164.830933 
	C136.628952,162.151535 138.968887,162.992126 140.234802,165.457535 
	C140.896881,166.746933 140.474182,169.306595 139.530060,170.476181 
	C138.806854,171.372101 136.144043,171.655701 134.970200,171.032333 
	C132.659103,169.805008 131.210144,167.675781 133.970734,164.830933 
z"/>
<path fill="#57CEA7" opacity="1.000000" stroke="none" 
	d="
M272.082672,165.168488 
	C274.386414,168.340637 272.621338,170.420181 270.326721,171.322205 
	C269.064789,171.818283 266.542328,170.812103 265.524231,169.657730 
	C264.777161,168.810638 265.002289,166.262115 265.760437,165.104935 
	C267.402008,162.599365 269.714478,162.468735 272.082672,165.168488 
z"/>
<path fill="#57CEA7" opacity="1.000000" stroke="none" 
	d="
M184.151733,166.436798 
	C185.900848,165.171051 187.597015,163.448257 189.112228,163.594925 
	C190.408997,163.720428 192.144669,165.851044 192.464813,167.354858 
	C192.699829,168.458817 191.239059,170.364502 190.042221,171.242477 
	C187.405106,173.177017 185.067871,171.357086 184.151733,166.436798 
z"/>
<path fill="#63D2AE" opacity="1.000000" stroke="none" 
	d="
M140.421402,247.735031 
	C139.991791,247.663177 140.004715,247.759003 140.007599,247.781952 
	C140.984650,246.228729 142.357239,244.759521 142.817444,243.045349 
	C143.250702,241.431625 142.721954,239.559647 142.599442,237.517975 
	C145.052109,237.517975 147.346191,237.517975 149.640274,237.517975 
	C145.056412,240.291275 143.515350,243.622803 147.787354,249.210358 
	C144.570770,248.559525 142.710892,248.183197 140.421402,247.735031 
z"/>
<path fill="#63D2AE" opacity="1.000000" stroke="none" 
	d="
M219.941391,132.980713 
	C220.066437,132.238235 220.191498,131.495743 220.129120,130.422440 
	C219.941681,130.091614 219.923981,130.127670 219.923981,130.127670 
	C221.084763,128.320709 222.245544,126.513741 223.621445,124.320404 
	C224.112885,122.927284 224.389206,121.920532 224.665527,120.913773 
	C224.435883,119.183388 224.206238,117.452995 223.885147,115.145844 
	C223.775757,114.261200 223.656235,113.999748 223.435135,113.784729 
	C222.742233,112.220863 222.049347,110.657005 221.195374,108.729614 
	C228.677139,113.464249 228.854462,122.582230 221.424072,132.955688 
	C220.492233,133.061050 220.216812,133.020889 219.941391,132.980713 
z"/>
<path fill="#63D2AE" opacity="1.000000" stroke="none" 
	d="
M205.401642,244.486633 
	C205.857193,245.941513 206.295319,246.993576 206.882523,248.403625 
	C205.403671,248.517578 204.008392,248.625092 202.552185,248.737305 
	C202.552185,244.948807 202.552185,241.441528 202.552185,237.562729 
	C204.936127,237.562729 207.251205,237.562729 209.148880,237.562729 
	C207.920395,239.690704 206.652313,241.887268 205.401642,244.486633 
z"/>
<path fill="#63D2AE" opacity="1.000000" stroke="none" 
	d="
M102.023941,238.838470 
	C98.063293,242.899490 99.095245,245.313171 105.404099,247.578735 
	C102.752808,250.087173 99.947037,248.970947 98.655701,246.760468 
	C97.556961,244.879669 97.357460,241.636505 98.229355,239.636627 
	C99.556168,236.593292 102.624390,236.296021 105.706612,238.627548 
	C104.618034,238.679123 103.529465,238.730698 102.023941,238.838470 
z"/>
<path fill="#57CEA7" opacity="1.000000" stroke="none" 
	d="
M186.538651,238.252151 
	C185.342392,239.815369 183.378082,240.918564 183.230927,242.226242 
	C183.029221,244.018753 184.206467,245.966431 184.954437,248.366425 
	C182.565338,249.605164 180.849655,248.873413 180.778091,244.775925 
	C180.736679,242.405792 180.282516,240.042877 179.937866,237.004456 
	C181.977203,233.571564 184.232712,237.651001 186.538651,238.252151 
z"/>
<path fill="#CCE7DE" opacity="1.000000" stroke="none" 
	d="
M191.025909,91.935806 
	C190.575134,92.862602 190.124374,93.789398 189.837860,94.948235 
	C188.276901,98.721931 185.551910,98.373177 182.451218,97.140549 
	C182.967163,95.275223 183.461060,93.489571 184.227112,91.227280 
	C185.003326,90.481781 185.507401,90.212936 186.011459,89.944092 
	C187.527817,90.241707 189.044159,90.539322 190.874634,90.857132 
	C191.188751,90.877327 191.145737,90.946617 191.087051,91.188965 
	C191.027542,91.599472 191.026718,91.767632 191.025909,91.935806 
z"/>
<path fill="#75D4B5" opacity="1.000000" stroke="none" 
	d="
M160.874924,245.257339 
	C160.376450,246.773682 159.848969,247.892990 159.321472,249.012314 
	C158.743820,248.762360 158.166168,248.512405 157.588516,248.262451 
	C158.825226,244.747375 156.937576,240.533737 158.221725,237.029266 
	C159.096451,237.192444 159.971191,237.355621 160.845917,237.518799 
	C160.845917,239.965973 160.845917,242.413132 160.874924,245.257339 
z"/>
<path fill="#EBEDED" opacity="1.000000" stroke="none" 
	d="
M210.669434,138.110229 
	C209.397446,137.362991 208.125473,136.615753 206.853485,135.868515 
	C207.136688,135.278778 207.419891,134.689041 207.703094,134.099289 
	C210.580551,133.006714 213.458008,131.914124 216.913010,130.602249 
	C216.969742,130.668945 217.799026,131.643707 218.717499,133.147766 
	C217.861115,134.423721 216.915558,135.170364 215.789673,135.780243 
	C215.072754,135.759521 214.536194,135.875565 213.991974,136.233856 
	C213.624054,136.879456 213.263794,137.282791 212.805115,137.370575 
	C212.098083,136.648590 211.489471,136.242157 210.880875,135.835739 
	C210.759125,136.436584 210.637390,137.037445 210.617554,137.735596 
	C210.719482,137.832886 210.669449,138.110214 210.669434,138.110229 
z"/>
<path fill="#6AD4B2" opacity="1.000000" stroke="none" 
	d="
M215.970016,135.917023 
	C216.915558,135.170364 217.861115,134.423721 218.916138,133.388779 
	C219.025589,133.100494 219.482178,133.030457 219.711792,133.005585 
	C220.216812,133.020889 220.492233,133.061050 221.180573,133.169983 
	C217.302582,136.078323 213.011673,138.917908 208.365860,141.828522 
	C208.008667,141.492661 208.006393,141.085754 208.011383,140.373718 
	C208.795456,139.566330 209.572281,139.064087 210.509277,138.336029 
	C210.669449,138.110214 210.719482,137.832886 210.884750,137.854782 
	C211.667862,137.813171 212.285706,137.749649 212.903534,137.686127 
	C213.263794,137.282791 213.624054,136.879456 214.323090,136.305695 
	C215.097931,136.062531 215.533981,135.989777 215.970016,135.917023 
z"/>
<path fill="#6AD4B2" opacity="1.000000" stroke="none" 
	d="
M229.043488,247.713593 
	C228.280670,247.995850 227.448318,248.625931 226.769073,248.490128 
	C225.210297,248.178497 223.726151,247.493561 222.211700,246.960175 
	C222.992447,245.733444 223.564987,244.266922 224.617462,243.353149 
	C225.518448,242.570908 226.969376,242.422073 228.515289,242.245392 
	C228.916809,244.236313 228.980148,245.974945 229.043488,247.713593 
z"/>
<path fill="#5DD0AB" opacity="1.000000" stroke="none" 
	d="
M242.999146,247.284637 
	C240.485504,250.506073 238.057098,248.540665 236.301453,246.455383 
	C233.921906,243.629074 234.776855,240.727325 238.046570,237.498459 
	C237.520813,242.275467 237.048431,246.534760 242.999146,247.284637 
z"/>
<path fill="#57CEA7" opacity="1.000000" stroke="none" 
	d="
M229.289352,247.928558 
	C228.980148,245.974945 228.916809,244.236313 228.884659,242.167419 
	C227.661606,240.505020 226.407364,239.172882 224.952164,237.627319 
	C225.881317,237.544952 227.901215,236.846283 229.448639,237.420639 
	C230.399902,237.773697 230.814835,240.033264 231.131348,241.509506 
	C231.470505,243.091202 231.411697,244.758255 231.735779,246.982941 
	C231.923309,247.901642 231.915741,248.225784 231.922256,248.550262 
	C231.126572,248.414688 230.330902,248.279114 229.289352,247.928558 
z"/>
<path fill="#EBEDED" opacity="1.000000" stroke="none" 
	d="
M184.868317,139.107117 
	C183.920685,139.327682 182.870605,139.294647 181.293182,139.256775 
	C180.498260,139.416321 180.258850,139.614670 180.047562,139.846985 
	C179.137619,139.766327 178.227692,139.685654 177.064301,139.367111 
	C177.023682,137.598297 177.236511,136.067383 177.480881,134.309738 
	C182.000717,132.258316 182.644272,136.819443 184.868317,139.107117 
z"/>
<path fill="#EBEDED" opacity="1.000000" stroke="none" 
	d="
M140.968674,108.049461 
	C135.318329,105.484924 139.356079,103.478683 141.440353,101.254501 
	C145.254639,103.348625 144.033432,105.421890 141.227524,107.761658 
	C141.004868,108.007004 140.968674,108.049461 140.968674,108.049461 
z"/>
<path fill="#75D4B5" opacity="1.000000" stroke="none" 
	d="
M127.282974,122.015457 
	C126.919815,117.716629 126.911400,113.517334 130.987091,109.519211 
	C130.078110,114.056473 129.343353,117.724030 128.206055,121.724121 
	C127.629990,122.042923 127.456482,122.029190 127.282974,122.015457 
z"/>
<path fill="#6ED5B4" opacity="1.000000" stroke="none" 
	d="
M128.618576,125.597626 
	C131.192917,129.268478 133.442108,132.807739 135.691315,136.347000 
	C131.642029,133.837936 127.933701,131.075073 128.618576,125.597626 
z"/>
<path fill="#CCE7DE" opacity="1.000000" stroke="none" 
	d="
M204.125961,110.054947 
	C203.022812,110.421394 201.114532,111.317696 200.949432,111.066833 
	C199.999359,109.623100 199.461975,107.907776 198.784698,106.284508 
	C199.202545,105.988670 199.620392,105.692825 200.038239,105.396988 
	C201.183777,106.146111 202.329315,106.895241 203.762085,108.160431 
	C204.074875,109.135986 204.100418,109.595467 204.125961,110.054947 
z"/>
<path fill="#EBEDED" opacity="1.000000" stroke="none" 
	d="
M224.408401,120.725754 
	C224.389206,121.920532 224.112885,122.927284 223.509415,124.015900 
	C221.784882,122.760788 220.387497,121.423820 218.990128,120.086861 
	C219.193420,119.704803 219.396729,119.322739 219.600037,118.940681 
	C221.117111,119.473030 222.634201,120.005386 224.408401,120.725754 
z"/>
<path fill="#EBEDED" opacity="1.000000" stroke="none" 
	d="
M149.085861,139.038422 
	C149.430069,139.868698 149.480545,140.518555 149.568985,141.495239 
	C148.235260,141.620224 146.863586,141.418365 145.119705,140.708191 
	C144.692154,139.869598 144.636810,139.539337 144.581451,139.209091 
	C144.796432,138.357407 145.011414,137.505722 145.297043,136.374207 
	C146.518829,137.242462 147.655487,138.050217 149.085861,139.038422 
z"/>
<path fill="#EBEDED" opacity="1.000000" stroke="none" 
	d="
M143.579102,94.564560 
	C142.721786,95.978554 141.965942,97.088638 141.210083,98.198730 
	C140.915146,98.031616 140.620193,97.864494 140.325241,97.697380 
	C140.968933,95.689369 141.612640,93.681351 142.256332,91.673340 
	C142.585007,91.705475 142.913666,91.737617 143.242325,91.769760 
	C143.388397,92.600052 143.534470,93.430351 143.579102,94.564560 
z"/>
<path fill="#EBEDED" opacity="1.000000" stroke="none" 
	d="
M205.001404,96.465050 
	C206.248077,98.128052 207.496262,100.163391 208.703522,102.562386 
	C207.442703,100.896492 206.222794,98.866936 205.001404,96.465050 
z"/>
<path fill="#EBEDED" opacity="1.000000" stroke="none" 
	d="
M204.343445,110.151352 
	C204.100418,109.595467 204.074875,109.135986 204.040100,108.331848 
	C206.046173,107.403938 208.061447,106.820686 210.076736,106.237434 
	C210.228500,106.645882 210.380264,107.054329 210.532028,107.462769 
	C208.541656,108.391098 206.551285,109.319420 204.343445,110.151352 
z"/>
<path fill="#6ED5B4" opacity="1.000000" stroke="none" 
	d="
M144.231415,139.207275 
	C144.636810,139.539337 144.692154,139.869598 144.804016,140.443192 
	C142.284134,140.004745 139.707748,139.322937 137.131378,138.641129 
	C137.252151,138.226181 137.372940,137.811234 137.493713,137.396286 
	C139.622940,137.999344 141.752151,138.602402 144.231415,139.207275 
z"/>
<path fill="#EBEDED" opacity="1.000000" stroke="none" 
	d="
M153.953888,138.023941 
	C152.779099,138.476944 151.387711,138.600433 149.704788,138.721039 
	C149.047058,138.042252 148.680878,137.366364 148.155365,136.343445 
	C147.996033,135.996414 148.025436,135.961212 148.025436,135.961212 
	C149.929398,136.538956 151.833359,137.116684 153.953888,138.023941 
z"/>
<path fill="#EBEDED" opacity="1.000000" stroke="none" 
	d="
M185.955200,89.659744 
	C185.507401,90.212936 185.003326,90.481781 184.239410,90.868828 
	C183.851685,89.769493 183.723785,88.551964 183.595886,87.334435 
	C183.952805,87.253754 184.309708,87.173073 184.666626,87.092392 
	C185.077393,87.853394 185.488159,88.614395 185.955200,89.659744 
z"/>
<path fill="#75D4B5" opacity="1.000000" stroke="none" 
	d="
M131.846848,107.261009 
	C132.443680,107.217400 132.874420,107.390678 133.305145,107.563950 
	C132.709137,107.969673 132.113144,108.375412 131.517151,108.781158 
	C131.571671,108.346733 131.626205,107.912315 131.846848,107.261009 
z"/>
<path fill="#EBEDED" opacity="1.000000" stroke="none" 
	d="
M203.637695,102.875526 
	C204.251404,102.974586 204.701904,103.241959 205.152390,103.509338 
	C204.847214,103.807777 204.542053,104.106216 204.236877,104.404655 
	C203.982758,103.951050 203.728622,103.497444 203.637695,102.875526 
z"/>
<path fill="#EBEDED" opacity="1.000000" stroke="none" 
	d="
M193.961487,138.884491 
	C193.547150,139.382965 193.055130,139.627304 192.278992,139.810791 
	C192.624512,139.376740 193.254166,139.003555 193.961487,138.884491 
z"/>
<path fill="#EBEDED" opacity="1.000000" stroke="none" 
	d="
M215.145996,104.255692 
	C214.689713,104.164101 214.360291,103.933250 214.030884,103.702408 
	C214.135117,103.590317 214.315308,103.370155 214.332336,103.382111 
	C214.657333,103.610565 214.963120,103.866333 215.145996,104.255692 
z"/>
<path fill="#EBEDED" opacity="1.000000" stroke="none" 
	d="
M217.427521,105.205170 
	C217.551682,105.377701 217.565857,105.600304 217.580032,105.822906 
	C217.492538,105.633682 217.405029,105.444458 217.427521,105.205170 
z"/>
<path fill="#75D4B5" opacity="1.000000" stroke="none" 
	d="
M135.752869,106.246780 
	C135.704895,106.288109 135.549042,105.974449 135.549042,105.974449 
	C135.549042,105.974449 135.800858,106.205444 135.752869,106.246780 
z"/>
<path fill="#EBEDED" opacity="1.000000" stroke="none" 
	d="
M187.970642,133.045761 
	C187.702423,132.939453 187.434219,132.833160 187.166000,132.726852 
	C187.384079,132.731308 187.602158,132.735748 187.912628,132.872910 
	C188.005020,133.005630 187.970642,133.045761 187.970642,133.045761 
z"/>
<path fill="#EBEDED" opacity="1.000000" stroke="none" 
	d="
M219.519058,129.229218 
	C219.414490,129.127350 219.309937,129.025467 219.205383,128.923584 
	C219.375793,128.972214 219.546219,129.020828 219.682053,129.222046 
	C219.647476,129.374634 219.519058,129.229218 219.519058,129.229218 
z"/>
<path fill="#6AD4B2" opacity="1.000000" stroke="none" 
	d="
M232.138885,248.465240 
	C231.915741,248.225784 231.923309,247.901642 231.953094,247.334625 
	C232.092636,247.521011 232.224075,247.950607 232.138885,248.465240 
z"/>
<path fill="#EBEDED" opacity="1.000000" stroke="none" 
	d="
M185.013016,135.980865 
	C185.281860,136.074814 185.550720,136.168777 185.819565,136.262741 
	C185.612045,136.256714 185.404526,136.250687 185.098267,136.122025 
	C184.999542,135.999390 185.013016,135.980865 185.013016,135.980865 
z"/>
<path fill="#EBEDED" opacity="1.000000" stroke="none" 
	d="
M206.913757,130.529480 
	C206.889969,130.474350 207.116135,130.462921 207.116135,130.462921 
	C207.116135,130.462921 206.937561,130.584625 206.913757,130.529480 
z"/>
<path fill="#6ED5B4" opacity="1.000000" stroke="none" 
	d="
M127.216324,122.293182 
	C127.456482,122.029190 127.629990,122.042923 128.065704,122.077751 
	C128.179764,122.520882 128.031616,122.942909 127.883469,123.364937 
	C127.638870,123.100266 127.394272,122.835587 127.216324,122.293182 
z"/>
<path fill="#EBEDED" opacity="1.000000" stroke="none" 
	d="
M223.298401,113.906082 
	C223.656235,113.999748 223.775757,114.261200 223.758728,114.785698 
	C223.536377,114.677353 223.349014,114.352394 223.298401,113.906082 
z"/>
<path fill="#63D2AE" opacity="1.000000" stroke="none" 
	d="
M144.485413,89.471527 
	C144.485275,89.490868 144.485535,89.452187 144.485413,89.471527 
z"/>
<path fill="#63D2AE" opacity="1.000000" stroke="none" 
	d="
M219.652313,129.332428 
	C219.519058,129.229218 219.647476,129.374634 219.742828,129.362854 
	C219.838196,129.351059 219.766129,129.750610 219.845062,129.939148 
	C219.923981,130.127670 219.941681,130.091614 219.949921,130.082047 
	C220.024826,129.826309 219.967300,129.614029 219.652313,129.332428 
z"/>
<path fill="#EBEDED" opacity="1.000000" stroke="none" 
	d="
M191.507965,132.493164 
	C191.515518,132.513489 191.500397,132.472855 191.507965,132.493164 
z"/>
<path fill="#EBEDED" opacity="1.000000" stroke="none" 
	d="
M188.024857,132.988190 
	C188.044693,132.970734 188.233414,133.146042 188.233414,133.146042 
	C188.233414,133.146042 188.055405,133.153839 188.013031,133.099792 
	C187.970642,133.045761 188.005020,133.005630 188.024857,132.988190 
z"/>
<path fill="#EBEDED" opacity="1.000000" stroke="none" 
	d="
M201.507507,133.507996 
	C201.487152,133.515549 201.527847,133.500458 201.507507,133.507996 
z"/>
<path fill="#EBEDED" opacity="1.000000" stroke="none" 
	d="
M203.491302,134.507156 
	C203.483490,134.486374 203.499115,134.527939 203.491302,134.507156 
z"/>
<path fill="#EBEDED" opacity="1.000000" stroke="none" 
	d="
M147.978531,136.011230 
	C147.961029,136.026031 147.771362,135.857300 147.771362,135.857300 
	C147.771362,135.857300 147.943695,135.852921 147.984558,135.907074 
	C148.025436,135.961212 147.996033,135.996414 147.978531,136.011230 
z"/>
<path fill="#EBEDED" opacity="1.000000" stroke="none" 
	d="
M184.990387,136.006195 
	C184.981247,136.013016 184.940933,135.870163 184.976974,135.925507 
	C185.013016,135.980865 184.999542,135.999390 184.990387,136.006195 
z"/>
<path fill="#EBEDED" opacity="1.000000" stroke="none" 
	d="
M199.493149,135.491852 
	C199.513489,135.484299 199.472809,135.499420 199.493149,135.491852 
z"/>
<path fill="#EBEDED" opacity="1.000000" stroke="none" 
	d="
M141.025665,107.988419 
	C141.046448,107.969833 141.234360,108.147018 141.234360,108.147018 
	C141.234360,108.147018 141.054718,108.156776 141.011688,108.103119 
	C140.968674,108.049461 141.004868,108.007004 141.025665,107.988419 
z"/>
<path fill="#EBEDED" opacity="1.000000" stroke="none" 
	d="
M198.493195,138.490753 
	C198.514496,138.482697 198.471893,138.498795 198.493195,138.490753 
z"/>
<path fill="#EBEDED" opacity="1.000000" stroke="none" 
	d="
M201.025375,128.961365 
	C201.025375,128.961365 201.229294,129.137695 201.229294,129.137695 
	C201.229294,129.137695 201.044907,129.143997 201.020782,129.070068 
	C200.996643,128.996124 201.025375,128.961365 201.025375,128.961365 
z"/>
<path fill="#EBEDED" opacity="1.000000" stroke="none" 
	d="
M200.979462,129.010696 
	C200.962265,129.025269 200.772110,128.857513 200.772110,128.857513 
	C200.772110,128.857513 200.943802,128.853149 200.984589,128.907257 
	C201.025375,128.961365 200.996643,128.996124 200.979462,129.010696 
z"/>
<path fill="#EBEDED" opacity="1.000000" stroke="none" 
	d="
M216.491837,126.506882 
	C216.484192,126.486397 216.499481,126.527367 216.491837,126.506882 
z"/>
<path fill="#EBEDED" opacity="1.000000" stroke="none" 
	d="
M198.506882,126.507614 
	C198.486862,126.515022 198.526901,126.500214 198.506882,126.507614 
z"/>
<path fill="#EBEDED" opacity="1.000000" stroke="none" 
	d="
M214.508774,124.492500 
	C214.516541,124.513290 214.501007,124.471710 214.508774,124.492500 
z"/>
<path fill="#EBEDED" opacity="1.000000" stroke="none" 
	d="
M252.508514,189.016464 
	C252.793213,191.875778 253.158401,194.366974 252.992172,196.822220 
	C252.640198,202.021378 249.815979,204.542130 245.032867,204.296722 
	C239.992706,204.038116 238.059967,201.813629 238.022659,196.208939 
	C238.009415,194.218826 238.151459,192.218109 237.993530,190.240524 
	C237.675781,186.261429 238.918243,183.342316 243.080231,182.370117 
	C247.121506,181.426132 249.733414,183.467392 251.607376,186.790054 
	C251.929688,187.361526 252.104996,188.015961 252.508514,189.016464 
z"/>
<path fill="#EBEDED" opacity="1.000000" stroke="none" 
	d="
M214.713593,194.548340 
	C215.880463,200.172485 214.230667,203.423965 210.035263,203.486008 
	C208.473724,203.509094 206.886749,201.811523 205.311386,200.898560 
	C206.140289,199.469666 206.637299,197.514420 207.875076,196.733978 
	C209.781006,195.532242 212.194962,195.136215 214.713593,194.548340 
z"/>
<path fill="#EDEEEE" opacity="1.000000" stroke="none" 
	d="
M191.274628,91.852180 
	C191.026718,91.767632 191.027542,91.599472 191.047333,91.179718 
	C191.218658,91.208260 191.371002,91.488411 191.274628,91.852180 
z"/>
<path fill="#EDEEEE" opacity="1.000000" stroke="none" 
	d="
M155.043442,138.408630 
	C155.464523,138.336349 156.061829,138.550858 156.901413,138.984741 
	C156.502350,139.034561 155.861008,138.864975 155.043442,138.408630 
z"/>
<path fill="#EBEDED" opacity="1.000000" stroke="none" 
	d="
M161.172745,138.163361 
	C160.856567,138.476517 160.400085,138.667892 159.734375,138.693817 
	C159.663544,138.387451 159.801941,138.246536 160.259430,137.904358 
	C160.578522,137.703064 160.751114,137.798828 160.751114,137.798828 
	C160.751114,137.798828 161.032440,138.041565 161.172745,138.163361 
z"/>
<path fill="#EDEEEE" opacity="1.000000" stroke="none" 
	d="
M180.293640,139.809036 
	C180.258850,139.614670 180.498260,139.416321 180.973877,139.143204 
	C181.068710,139.367950 180.854645,139.613480 180.293640,139.809036 
z"/>
<path fill="#75D4B5" opacity="1.000000" stroke="none" 
	d="
M160.701630,137.799713 
	C160.751114,137.798828 160.578522,137.703064 160.480515,137.707123 
	C160.382507,137.711166 160.652161,137.800598 160.701630,137.799713 
z"/>
<path fill="#EDEEEE" opacity="1.000000" stroke="none" 
	d="
M212.805115,137.370575 
	C212.285706,137.749649 211.667862,137.813171 210.782837,137.757477 
	C210.637390,137.037445 210.759125,136.436584 210.880875,135.835739 
	C211.489471,136.242157 212.098083,136.648590 212.805115,137.370575 
z"/>
<path fill="#EDEEEE" opacity="1.000000" stroke="none" 
	d="
M215.789673,135.780243 
	C215.533981,135.989777 215.097931,136.062531 214.330765,136.063446 
	C214.536194,135.875565 215.072754,135.759521 215.789673,135.780243 
z"/>
</svg>